# xmcd
#
# Track frame offsets:
#	150
#	9961
#	22447
#	39028
#	122831
#	127402
#	130427
#	142369
#	153004
#	164415
#	175041
#	187980
#	202155
#	207513
#	223881
#	236903
#	243893
#	249936
#	259554
#	277338
#	289261
#	299122
#
# Disc length: 4166 seconds
#
# Revision: 0
# Processed by: cddbd v1.5.2PL0 Copyright (c) Steve Scherf et al.
# Submitted via: EasyCDDAExtractor 16.0.8.2
#
DISCID=69104416
DTITLE=Άγνωστος - Δημοτικά τραγ. της Σκύρου 4
DYEAR=2004
DGENRE=Παραδοσιακή
TTITLE0=Φτούλης Γεώργιος ή Κούρος - Ο Αυλωνιτιάνικος (Στη γέμιση του φεγγαριού
TTITLE0=)
TTITLE1=Τσακαμή Ευφροσύνη - Μιά λυγερή μιάν έμορφη
TTITLE2=Φεργάδη Μαρία - Της αυγής (Ξύπνησε χαϊδεμένη μου)
TTITLE3=Λύκου Άννα - Κάτου στα Ιεροσόλυμα
TTITLE4=Ευσταθίου Μαριγώ - Τα δίχτια θα πουλήσω
TTITLE5=Ευσταθίου Στάθης - Νανούρισμα (Ύπνε μου σαν μου τ' αγαπάς)
TTITLE6=Κατσαρέλια Αγγελική - Το τραγούδι του Μάη (Μάγισσα μιάγια μού 'κανες)
TTITLE7=Φεργάδη Μαρία - Ω, χρυσοπράσινε μ' αητέ
TTITLE8=Δαφνούλης Γεώργιος - Του Δούκα (Ανοιγοκλούν τα μάτια μου)
TTITLE9=Κατσαρέλια Αγγελική - Της κορέλλας (Το μονοδένδρι στο βουνό)
TTITLE10=Φραγκούλη Σοφία - Των Φώτων (Σήμερα είναι του Φωτός)
TTITLE11=Δαφνούλης Γεώργιος - Η Σπυριδούλα (Η νύχτα με παρηγορεί)
TTITLE12=Λύκου Άννα - Κάτου στην μπάρα, στο νερό
TTITLE13=Φτούλης Γεώργιος ή Κούρος-Φτούλη Άννα - Της κορέλλας (Ήθελα νά 'μουν 
TTITLE13=άνοιξη)
TTITLE14=Μαυρογιώργης Σταμάτης - Ο τζιτζινές (Τίνος να πω τον πόνο μου)
TTITLE15=Φεργάδη Μαρία - Μάρε, γιέ μου, κανακάρη
TTITLE16=Τσακαμή Ευφροσύνη - Των Φώτων (Σήμερα είναι του Φωτός) 2
TTITLE17=Μαυρίκος Μανώλης ή Παπουλάκος - Ήθελα νά 'ρθου το βράδυ (σκ: Της ελιά
TTITLE17=ς τα φυλλαράκια)
TTITLE18=Φραγκούλη Σοφία - Του Δούκα (Ανοιγοκλούν τα μάτια μου) 2
TTITLE19=Λύκου Άννα - Κάτου στην Αγιά Μαρίνα
TTITLE20=Μαυρίκος Μανώλης ή Παπουλάκος - Αποκριάτικο (Του γέρου, Τα μάτια σου 
TTITLE20='ναι θάλασσα)
TTITLE21=Τσακαμή Ευφροσύνη - Ο τζιτζινές (Μιά ώρα αν δε σ' έβλεπα)
EXTD=
EXTT0=
EXTT1=
EXTT2=
EXTT3=
EXTT4=
EXTT5=
EXTT6=
EXTT7=
EXTT8=
EXTT9=
EXTT10=
EXTT11=
EXTT12=
EXTT13=
EXTT14=
EXTT15=
EXTT16=
EXTT17=
EXTT18=
EXTT19=
EXTT20=
EXTT21=
PLAYORDER=
